<svg width="1440" height="220" viewBox="0 0 1440 220" fill="none" xmlns="http://www.w3.org/2000/svg">
<rect width="1440" height="220" fill="#D0E6AF"/>
<rect x="-8" y="2" width="39" height="39" fill="white"/>
<rect x="34" y="2" width="39" height="39" fill="white"/>
<rect x="76" y="2" width="39" height="39" fill="white"/>
<rect x="118" y="2" width="39" height="39" fill="white"/>
<rect x="160" y="2" width="39" height="39" fill="white"/>
<rect x="202" y="2" width="39" height="39" fill="white"/>
<rect x="244" y="2" width="39" height="39" fill="white"/>
<rect x="286" y="2" width="39" height="39" fill="white"/>
<rect x="328" y="2" width="39" height="39" fill="white"/>
<rect x="370" y="2" width="39" height="39" fill="white"/>
<rect x="412" y="2" width="39" height="39" fill="white"/>
<rect x="454" y="2" width="39" height="39" fill="white"/>
<rect x="496" y="2" width="39" height="39" fill="white"/>
<rect x="538" y="2" width="39" height="39" fill="white"/>
<rect x="580" y="2" width="39" height="39" fill="white"/>
<rect x="622" y="2" width="39" height="39" fill="white"/>
<rect x="664" y="2" width="39" height="39" fill="white"/>
<rect x="706" y="2" width="39" height="39" fill="white"/>
<rect x="748" y="2" width="39" height="39" fill="white"/>
<rect x="790" y="2" width="39" height="39" fill="white"/>
<rect x="832" y="2" width="39" height="39" fill="white"/>
<rect x="874" y="2" width="39" height="39" fill="white"/>
<rect x="916" y="2" width="39" height="39" fill="white"/>
<rect x="958" y="2" width="39" height="39" fill="white"/>
<rect x="1000" y="2" width="39" height="39" fill="white"/>
<rect x="1042" y="2" width="39" height="39" fill="white"/>
<rect x="1084" y="2" width="39" height="39" fill="white"/>
<rect x="1126" y="2" width="39" height="39" fill="white"/>
<rect x="1168" y="2" width="39" height="39" fill="white"/>
<rect x="1210" y="2" width="39" height="39" fill="white"/>
<rect x="1252" y="2" width="39" height="39" fill="white"/>
<rect x="1294" y="2" width="39" height="39" fill="white"/>
<rect x="1336" y="2" width="39" height="39" fill="white"/>
<rect x="1378" y="2" width="39" height="39" fill="white"/>
<rect x="1420" y="2" width="20" height="39" fill="white"/>
<rect x="-8" y="44" width="39" height="39" fill="white"/>
<rect x="34" y="44" width="39" height="39" fill="white"/>
<rect x="76" y="44" width="39" height="39" fill="white"/>
<rect x="118" y="44" width="39" height="39" fill="white"/>
<rect x="160" y="44" width="39" height="39" fill="white"/>
<rect x="202" y="44" width="39" height="39" fill="white"/>
<rect x="244" y="44" width="39" height="39" fill="white"/>
<rect x="286" y="44" width="39" height="39" fill="white"/>
<rect x="328" y="44" width="39" height="39" fill="white"/>
<rect x="370" y="44" width="39" height="39" fill="white"/>
<rect x="412" y="44" width="39" height="39" fill="white"/>
<rect x="454" y="44" width="39" height="39" fill="white"/>
<rect x="496" y="44" width="39" height="39" fill="white"/>
<rect x="538" y="44" width="39" height="39" fill="white"/>
<rect x="580" y="44" width="39" height="39" fill="white"/>
<rect x="622" y="44" width="39" height="39" fill="white"/>
<rect x="664" y="44" width="39" height="39" fill="white"/>
<rect x="706" y="44" width="39" height="39" fill="white"/>
<rect x="748" y="44" width="39" height="39" fill="white"/>
<rect x="790" y="44" width="39" height="39" fill="white"/>
<rect x="832" y="44" width="39" height="39" fill="white"/>
<rect x="874" y="44" width="39" height="39" fill="white"/>
<rect x="916" y="44" width="39" height="39" fill="white"/>
<rect x="958" y="44" width="39" height="39" fill="white"/>
<rect x="1000" y="44" width="39" height="39" fill="white"/>
<rect x="1042" y="44" width="39" height="39" fill="white"/>
<rect x="1084" y="44" width="39" height="39" fill="white"/>
<rect x="1126" y="44" width="39" height="39" fill="white"/>
<rect x="1168" y="44" width="39" height="39" fill="white"/>
<rect x="1210" y="44" width="39" height="39" fill="white"/>
<rect x="1252" y="44" width="39" height="39" fill="white"/>
<rect x="1294" y="44" width="39" height="39" fill="white"/>
<rect x="1336" y="44" width="39" height="39" fill="white"/>
<rect x="1378" y="44" width="39" height="39" fill="white"/>
<rect x="1420" y="44" width="39" height="39" fill="white"/>
<rect x="-8" y="86" width="39" height="39" fill="white"/>
<rect x="34" y="86" width="39" height="39" fill="white"/>
<rect x="76" y="86" width="39" height="39" fill="white"/>
<rect x="118" y="86" width="39" height="39" fill="white"/>
<rect x="160" y="86" width="39" height="39" fill="white"/>
<rect x="202" y="86" width="39" height="39" fill="white"/>
<rect x="244" y="86" width="39" height="39" fill="white"/>
<rect x="286" y="86" width="39" height="39" fill="white"/>
<rect x="328" y="86" width="39" height="39" fill="white"/>
<rect x="370" y="86" width="39" height="39" fill="white"/>
<rect x="412" y="86" width="39" height="39" fill="white"/>
<rect x="454" y="86" width="39" height="39" fill="white"/>
<rect x="496" y="86" width="39" height="39" fill="white"/>
<rect x="538" y="86" width="39" height="39" fill="white"/>
<rect x="580" y="86" width="39" height="39" fill="white"/>
<rect x="622" y="86" width="39" height="39" fill="white"/>
<rect x="664" y="86" width="39" height="39" fill="white"/>
<rect x="706" y="86" width="39" height="39" fill="white"/>
<rect x="748" y="86" width="39" height="39" fill="white"/>
<rect x="790" y="86" width="39" height="39" fill="white"/>
<rect x="832" y="86" width="39" height="39" fill="white"/>
<rect x="874" y="86" width="39" height="39" fill="white"/>
<rect x="916" y="86" width="39" height="39" fill="white"/>
<rect x="958" y="86" width="39" height="39" fill="white"/>
<rect x="1000" y="86" width="39" height="39" fill="white"/>
<rect x="1042" y="86" width="39" height="39" fill="white"/>
<rect x="1084" y="86" width="39" height="39" fill="white"/>
<rect x="1126" y="86" width="39" height="39" fill="white"/>
<rect x="1168" y="86" width="39" height="39" fill="white"/>
<rect x="1210" y="86" width="39" height="39" fill="white"/>
<rect x="1252" y="86" width="39" height="39" fill="white"/>
<rect x="1294" y="86" width="39" height="39" fill="white"/>
<rect x="1336" y="86" width="39" height="39" fill="white"/>
<rect x="1378" y="86" width="39" height="39" fill="white"/>
<rect x="1420" y="86" width="20" height="39" fill="white"/>
<rect x="-8" y="128" width="39" height="39" fill="white"/>
<rect x="34" y="128" width="39" height="39" fill="white"/>
<rect x="76" y="128" width="39" height="39" fill="white"/>
<rect x="118" y="128" width="39" height="39" fill="white"/>
<rect x="160" y="128" width="39" height="39" fill="white"/>
<rect x="202" y="128" width="39" height="39" fill="white"/>
<rect x="244" y="128" width="39" height="39" fill="white"/>
<rect x="286" y="128" width="39" height="39" fill="white"/>
<rect x="328" y="128" width="39" height="39" fill="white"/>
<rect x="370" y="128" width="39" height="39" fill="white"/>
<rect x="412" y="128" width="39" height="39" fill="white"/>
<rect x="454" y="128" width="39" height="39" fill="white"/>
<rect x="496" y="128" width="39" height="39" fill="white"/>
<rect x="538" y="128" width="39" height="39" fill="white"/>
<rect x="580" y="128" width="39" height="39" fill="white"/>
<rect x="622" y="128" width="39" height="39" fill="white"/>
<rect x="664" y="128" width="39" height="39" fill="white"/>
<rect x="706" y="128" width="39" height="39" fill="white"/>
<rect x="748" y="128" width="39" height="39" fill="white"/>
<rect x="790" y="128" width="39" height="39" fill="white"/>
<rect x="832" y="128" width="39" height="39" fill="white"/>
<rect x="874" y="128" width="39" height="39" fill="white"/>
<rect x="916" y="128" width="39" height="39" fill="white"/>
<rect x="958" y="128" width="39" height="39" fill="white"/>
<rect x="1000" y="128" width="39" height="39" fill="white"/>
<rect x="1042" y="128" width="39" height="39" fill="white"/>
<rect x="1084" y="128" width="39" height="39" fill="white"/>
<rect x="1126" y="128" width="39" height="39" fill="white"/>
<rect x="1168" y="128" width="39" height="39" fill="white"/>
<rect x="1210" y="128" width="39" height="39" fill="white"/>
<rect x="1252" y="128" width="39" height="39" fill="white"/>
<rect x="1294" y="128" width="39" height="39" fill="white"/>
<rect x="1336" y="128" width="39" height="39" fill="white"/>
<rect x="1378" y="128" width="39" height="39" fill="white"/>
<rect x="1420" y="128" width="20" height="39" fill="white"/>
<rect x="-8" y="170" width="39" height="39" fill="white"/>
<rect x="34" y="170" width="39" height="39" fill="white"/>
<rect x="76" y="170" width="39" height="39" fill="white"/>
<rect x="118" y="170" width="39" height="39" fill="white"/>
<rect x="160" y="170" width="39" height="39" fill="white"/>
<rect x="202" y="170" width="39" height="39" fill="white"/>
<rect x="244" y="170" width="39" height="39" fill="white"/>
<rect x="286" y="170" width="39" height="39" fill="white"/>
<rect x="328" y="170" width="39" height="39" fill="white"/>
<rect x="370" y="170" width="39" height="39" fill="white"/>
<rect x="412" y="170" width="39" height="39" fill="white"/>
<rect x="454" y="170" width="39" height="39" fill="white"/>
<rect x="496" y="170" width="39" height="39" fill="white"/>
<rect x="538" y="170" width="39" height="39" fill="white"/>
<rect x="580" y="170" width="39" height="39" fill="white"/>
<rect x="622" y="170" width="39" height="39" fill="white"/>
<rect x="664" y="170" width="39" height="39" fill="white"/>
<rect x="706" y="170" width="39" height="39" fill="white"/>
<rect x="748" y="170" width="39" height="39" fill="white"/>
<rect x="790" y="170" width="39" height="39" fill="white"/>
<rect x="832" y="170" width="39" height="39" fill="white"/>
<rect x="874" y="170" width="39" height="39" fill="white"/>
<rect x="916" y="170" width="39" height="39" fill="white"/>
<rect x="958" y="170" width="39" height="39" fill="white"/>
<rect x="1000" y="170" width="39" height="39" fill="white"/>
<rect x="1042" y="170" width="39" height="39" fill="white"/>
<rect x="1084" y="170" width="39" height="39" fill="white"/>
<rect x="1126" y="170" width="39" height="39" fill="white"/>
<rect x="1168" y="170" width="39" height="39" fill="white"/>
<rect x="1210" y="170" width="39" height="39" fill="white"/>
<rect x="1252" y="170" width="39" height="39" fill="white"/>
<rect x="1294" y="170" width="39" height="39" fill="white"/>
<rect x="1336" y="170" width="39" height="39" fill="white"/>
<rect x="1378" y="170" width="39" height="39" fill="white"/>
<rect x="1420" y="170" width="20" height="39" fill="white"/>
<rect x="160" y="128" width="39" height="39" fill="#D0E6AF"/>
<rect x="-8" y="44" width="39" height="39" fill="#D0E6AF"/>
<rect x="286" y="2" width="39" height="39" fill="#D0E6AF"/>
<rect x="874" y="128" width="39" height="39" fill="#D0E6AF"/>
<rect x="1126" y="86" width="39" height="39" fill="#D0E6AF"/>
<rect x="1294" y="2" width="39" height="39" fill="#D0E6AF"/>
<rect x="1336" y="167" width="39" height="39" fill="#D0E6AF"/>
<rect x="706" y="44" width="39" height="39" fill="#D0E6AF"/>
<rect x="1420" y="41" width="20" height="45" fill="#D0E6AF"/>
</svg>
