<svg width="218" height="218" viewBox="0 0 218 218" fill="none" xmlns="http://www.w3.org/2000/svg">
<g clip-path="url(#clip0_16_25064)">
<path d="M-0.0795821 169.03C-0.122262 180.96 4.56871 192.42 12.9644 200.896C21.36 209.373 32.7749 214.173 44.705 214.244L170.704 214.846C182.634 214.888 194.094 210.198 202.57 201.802C211.046 193.406 215.847 181.991 215.918 170.061L216.305 89.0621L0.307215 88.0306L-0.0795821 169.03ZM153.112 129.261C155.782 129.274 158.388 130.078 160.601 131.572C162.814 133.066 164.535 135.182 165.545 137.654C166.555 140.126 166.809 142.841 166.275 145.458C165.742 148.074 164.445 150.473 162.548 152.352C160.651 154.231 158.239 155.505 155.618 156.014C152.997 156.522 150.284 156.242 147.822 155.208C145.36 154.175 143.26 152.434 141.787 150.207C140.314 147.98 139.535 145.366 139.548 142.696C139.565 139.116 141.004 135.689 143.547 133.169C146.091 130.65 149.532 129.244 153.112 129.261ZM108.113 129.046C110.783 129.059 113.389 129.863 115.602 131.357C117.815 132.851 119.535 134.967 120.545 137.439C121.555 139.911 121.809 142.626 121.276 145.243C120.743 147.859 119.445 150.258 117.548 152.137C115.651 154.016 113.24 155.29 110.619 155.799C107.997 156.307 105.284 156.027 102.822 154.993C100.361 153.96 98.2604 152.219 96.7876 149.992C95.3148 147.765 94.5355 145.151 94.5483 142.481C94.5654 138.901 96.0041 135.474 98.5479 132.954C101.092 130.435 104.532 129.029 108.113 129.046ZM63.1131 128.831C65.7831 128.844 68.3894 129.648 70.6023 131.142C72.8153 132.636 74.5355 134.753 75.5455 137.224C76.5555 139.696 76.8099 142.412 76.2765 145.028C75.7431 147.644 74.4459 150.043 72.5489 151.922C70.6519 153.801 68.2403 155.076 65.6191 155.584C62.9979 156.092 60.2848 155.812 57.8229 154.778C55.361 153.745 53.2609 152.005 51.7881 149.777C50.3153 147.55 49.536 144.936 49.5488 142.266C49.5659 138.686 51.0046 135.259 53.5484 132.739C56.0922 130.22 59.5327 128.814 63.1131 128.831Z" fill="#7BA753"/>
<path d="M171.944 18.8164L162.944 18.7734L162.987 9.77349C162.998 7.38657 162.061 5.09288 160.381 3.39701C158.701 1.70115 156.417 0.742014 154.03 0.730616C151.643 0.719218 149.349 1.65649 147.653 3.33624C145.957 5.01598 144.998 7.30061 144.987 9.68754L144.944 18.6874L72.9447 18.3436L72.9877 9.34372C72.9991 6.9568 72.0618 4.66311 70.382 2.96724C68.7023 1.27137 66.4177 0.31224 64.0307 0.300842C61.6438 0.289444 59.3501 1.22671 57.6543 2.90646C55.9584 4.58621 54.9993 6.87084 54.9879 9.25776L54.9449 18.2577L45.945 18.2147C34.0147 18.172 22.5545 22.863 14.0783 31.2586C5.60209 39.6543 0.801877 51.0691 0.730616 62.9993L0.687639 71.9992L216.685 73.0306L216.728 64.0307C216.771 52.1005 212.08 40.6403 203.684 32.1641C195.289 23.6878 183.874 18.8876 171.944 18.8164Z" fill="#7BA753"/>
</g>
<defs>
<clipPath id="clip0_16_25064">
<rect width="216" height="216" fill="white" transform="translate(1.03146) rotate(0.273604)"/>
</clipPath>
</defs>
</svg>
