<svg width="216" height="216" viewBox="0 0 216 216" fill="none" xmlns="http://www.w3.org/2000/svg">
<g clip-path="url(#clip0_16_25)">
<path d="M126 63C126 66.5601 124.944 70.0402 122.966 73.0003C120.989 75.9603 118.177 78.2675 114.888 79.6298C111.599 80.9922 107.98 81.3487 104.488 80.6541C100.997 79.9596 97.7894 78.2453 95.2721 75.7279C92.7547 73.2106 91.0404 70.0033 90.3459 66.5116C89.6513 63.02 90.0078 59.4008 91.3702 56.1117C92.7325 52.8226 95.0396 50.0114 97.9997 48.0335C100.96 46.0557 104.44 45 108 45C112.774 45 117.352 46.8964 120.728 50.2721C124.104 53.6477 126 58.2261 126 63ZM152.55 107.613L108 151.2L63.522 107.676C54.6946 98.8762 48.6759 87.6557 46.2274 75.4343C43.779 63.2129 45.0108 50.5398 49.767 39.0186C54.5232 27.4975 62.59 17.6461 72.9468 10.711C83.3035 3.77584 95.4847 0.0686947 107.949 0.0586144C120.413 0.0485341 132.6 3.73597 142.968 10.6543C153.336 17.5727 161.419 27.411 166.194 38.9245C170.969 50.4379 172.221 63.109 169.792 75.3344C167.364 87.5597 161.363 98.799 152.55 107.613ZM144 63C144 55.8799 141.889 48.9196 137.933 42.9995C133.977 37.0793 128.355 32.4651 121.777 29.7403C115.198 27.0156 107.96 26.3027 100.977 27.6917C93.9934 29.0808 87.5788 32.5095 82.5442 37.5441C77.5095 42.5788 74.0808 48.9934 72.6917 55.9767C71.3027 62.9601 72.0156 70.1985 74.7403 76.7766C77.4651 83.3547 82.0793 88.9772 87.9995 92.9329C93.9196 96.8886 100.88 99 108 99C117.548 99 126.705 95.2072 133.456 88.4558C140.207 81.7045 144 72.5478 144 63ZM196.803 95.517L183.888 91.197C179.868 102.147 173.518 112.094 165.276 120.348L108 176.4L50.94 120.6C40.1085 109.809 32.5567 96.1687 29.16 81.261C25.4496 80.9195 21.7089 81.358 18.1781 82.5483C14.6473 83.7386 11.4046 85.6545 8.65838 88.1727C5.91214 90.691 3.72311 93.7559 2.23197 97.1705C0.740822 100.585 -0.0194529 104.274 -2.20857e-06 108V195.768L71.847 216.297L144.027 198.297L216.027 215.829V121.347C216.023 115.546 214.152 109.901 210.689 105.247C207.227 100.594 202.358 97.1876 196.803 95.517Z" fill="#7BA753"/>
</g>
<defs>
<clipPath id="clip0_16_25">
<rect width="216" height="216" fill="white"/>
</clipPath>
</defs>
</svg>
