<svg width="25" height="25" viewBox="0 0 25 25" fill="none" xmlns="http://www.w3.org/2000/svg">
<g clip-path="url(#clip0_22_429)">
<path d="M19.7917 2.08333H18.75V1.04167C18.75 0.765399 18.6403 0.500448 18.4449 0.305097C18.2496 0.109747 17.9846 0 17.7083 0C17.4321 0 17.1671 0.109747 16.9718 0.305097C16.7764 0.500448 16.6667 0.765399 16.6667 1.04167V2.08333H8.33333V1.04167C8.33333 0.765399 8.22359 0.500448 8.02824 0.305097C7.83289 0.109747 7.56793 0 7.29167 0C7.0154 0 6.75045 0.109747 6.5551 0.305097C6.35975 0.500448 6.25 0.765399 6.25 1.04167V2.08333H5.20833C3.82751 2.08499 2.50371 2.63425 1.52731 3.61065C0.550919 4.58704 0.00165402 5.91084 0 7.29167L0 19.7917C0.00165402 21.1725 0.550919 22.4963 1.52731 23.4727C2.50371 24.4491 3.82751 24.9983 5.20833 25H19.7917C21.1725 24.9983 22.4963 24.4491 23.4727 23.4727C24.4491 22.4963 24.9983 21.1725 25 19.7917V7.29167C24.9983 5.91084 24.4491 4.58704 23.4727 3.61065C22.4963 2.63425 21.1725 2.08499 19.7917 2.08333ZM2.08333 7.29167C2.08333 6.46286 2.41257 5.66801 2.99862 5.08196C3.58468 4.49591 4.37953 4.16667 5.20833 4.16667H19.7917C20.6205 4.16667 21.4153 4.49591 22.0014 5.08196C22.5874 5.66801 22.9167 6.46286 22.9167 7.29167V8.33333H2.08333V7.29167ZM19.7917 22.9167H5.20833C4.37953 22.9167 3.58468 22.5874 2.99862 22.0014C2.41257 21.4153 2.08333 20.6205 2.08333 19.7917V10.4167H22.9167V19.7917C22.9167 20.6205 22.5874 21.4153 22.0014 22.0014C21.4153 22.5874 20.6205 22.9167 19.7917 22.9167Z" fill="#51733F"/>
<path d="M12.5 17.1875C13.3629 17.1875 14.0625 16.4879 14.0625 15.625C14.0625 14.7621 13.3629 14.0625 12.5 14.0625C11.6371 14.0625 10.9375 14.7621 10.9375 15.625C10.9375 16.4879 11.6371 17.1875 12.5 17.1875Z" fill="#51733F"/>
<path d="M7.29163 17.1875C8.15457 17.1875 8.85413 16.4879 8.85413 15.625C8.85413 14.7621 8.15457 14.0625 7.29163 14.0625C6.42868 14.0625 5.72913 14.7621 5.72913 15.625C5.72913 16.4879 6.42868 17.1875 7.29163 17.1875Z" fill="#51733F"/>
<path d="M17.7084 17.1875C18.5713 17.1875 19.2709 16.4879 19.2709 15.625C19.2709 14.7621 18.5713 14.0625 17.7084 14.0625C16.8454 14.0625 16.1459 14.7621 16.1459 15.625C16.1459 16.4879 16.8454 17.1875 17.7084 17.1875Z" fill="#51733F"/>
</g>
<defs>
<clipPath id="clip0_22_429">
<rect width="25" height="25" fill="white"/>
</clipPath>
</defs>
</svg>
